{"title":"A Little Bit Zombie 2012 BRRip 720p x264 AAC - PRiSTiNE [P2PDL]","uid":8266398,"size":584932609,"categoryP":"video","categoryS":"hd___movies","magnet":"?xt=urn:btih:0695f4032f5e5e9731ab40505a8932e98fe00575&amp;dn=A+Little+Bit+Zombie+2012+BRRip+720p+x264+AAC+-+PRiSTiNE+%5BP2PDL%5D&amp;tr=udp%3A%2F%2Ftracker.openbittorrent.com%3A80&amp;tr=udp%3A%2F%2Fopen.demonii.com%3A1337&amp;tr=udp%3A%2F%2Ftracker.coppersurfer.tk%3A6969&amp;tr=udp%3A%2F%2Fexodus.desync.com%3A6969","seeders":1,"leechers":0,"uploader":"ValidusVyto","files":-1,"time":1363520249,"description":"_________________________  Visit us at _________________________\n  &lt;a href=&quot;\nhttp://p2pdl.com&quot; rel=&quot;nofollow&quot; target=&quot;_NEW&quot;&gt;\nhttp://p2pdl.com&lt;/a&gt;  ____________________________ &lt;a href=&quot; http://p2pdl.com&quot; rel=&quot;nofollow&quot; target=&quot;_NEW&quot;&gt; http://p2pdl.com&lt;/a&gt;\n\n\nA Little Bit Zombie 2012 BRRip 720p x264 AAC - PRiSTiNE\n\n\nGenre: Comedy | Horror\nPlot: Infected by a virus, a mild mannered HR manager attempts to fulfill his overwhelming desire for\nbrains, all while trying to keep it together so as not to incur the wrath of his bridezilla-to-be.\nDirector: Casey Walker\nStars: Kristopher Turner, Crystal Lowe, Shawn Roberts.\nRated: R for some bloody violence, language throughout and brief nudity.\n\n\nInfo: &lt;a href=&quot;\nhttp://www.imdb.com/title/tt1912982/&quot; rel=&quot;nofollow&quot; target=&quot;_NEW&quot;&gt;\nhttp://www.imdb.com/title/tt1912982/&lt;/a&gt;\n\nTrailer:\n\n\nFormat                         : MPEG-4\nFile size                      : 551 MiB\nDuration                       : 1h 27mn\nOverall bit rate               : 879 Kbps\nVideo Format                   : AVC\nVideo Bit rate                 : 797 Kbps\nWidth                          : 1 280 pixels\nHeight                         : 720 pixels\nDisplay aspect ratio           : 16:9\nFrame rate mode                : Constant\nFrame rate                     : 23.976 fps\nStream size                    : 499 MiB (91%)\nWriting library                : x264 core 129 r2245\nAudio Format                   : AAC\nAudio Bit rate                 : 80.0 Kbps\nChannel(s)                     : 2 channels\nChannel positions              : Front: L R\nSampling rate                  : 48.0 KHz\nStream size                    : 50.1 MiB (9%)\nLanguage                       : English\nSubtitle                       : Yes(English)\nSource                         : 720p.BluRay.x264-MELiTE(Thanks)\n\nScreenshots:\n &lt;a href=&quot;\nhttp://cdn.piczend.com/images/hL4qYXJu/1363512506_tinybayalittlebitzombie.jpg&quot; rel=&quot;nofollow&quot; target=&quot;_NEW&quot;&gt;\nhttp://cdn.piczend.com/images/hL4qYXJu/1363512506_tinybayalittlebitzombie.jpg&lt;/a&gt;\n\n\n----------------------------------------------------------------------------------------------------\n\n\nEncoded using revolutionary 10bit encoding, which enables us to provide you more crispier \nand sharper images at small sizes, just make sure you follow our instructions without a fault.\nRecommend to you to use latest version of VLC player. Install K-Lite Codec Pack or shark007 codecs\nin case of any kind of problem in playback (For non-VLC Media Player users). Alternatively, install\nCore AVC codecs, the fastest decoder that there is coupled with Community Center Codec Pack and play\non Windows Media Player Classic.\n\nEncoder Notes: Encoder Notes: Looking For Early Access To Anything You Can Provide DVDScr, R5, DVDR, BluRay, Direct\nAudio, Music Releases and Seedboxes. We require dedicated servers, so as to do more and fast releases of movies.\nIf You Got anything to offer contact us at &quot;&lt;a class=&quot;__cf_email__&quot; href=&quot;/cdn-cgi/l/email-protection&quot; data-cfemail=&quot;69191b0e29011c1a01470a0604&quot;&gt;[email&amp;#160;protected]&lt;/a&gt;&lt;script cf-hash='f9e31' type=&quot;text/javascript&quot;&gt;\n/* &lt;![CDATA[ */!function(){try{var t=&quot;currentScript&quot;in document?document.currentScript:function(){for(var t=document.getElementsByTagName(&quot;script&quot;),e=t.length;e--;)if(t[e].getAttribute(&quot;cf-hash&quot;))return t[e]}();if(t&amp;&amp;t.previousSibling){var e,r,n,i,c=t.previousSibling,a=c.getAttribute(&quot;data-cfemail&quot;);if(a){for(e=&quot;&quot;,r=parseInt(a.substr(0,2),16),n=2;a.length-n;n+=2)i=parseInt(a.substr(n,2),16)^r,e+=String.fromCharCode(i);e=document.createTextNode(e),c.parentNode.replaceChild(e,c)}}}catch(u){}}();/* ]]&gt; */&lt;/script&gt;&quot;.","torrent":{"xt":"urn:btih:0695f4032f5e5e9731ab40505a8932e98fe00575","amp;dn":"A+Little+Bit+Zombie+2012+BRRip+720p+x264+AAC+-+PRiSTiNE+%5BP2PDL%5D","amp;tr":["udp%3A%2F%2Ftracker.openbittorrent.com%3A80","udp%3A%2F%2Fopen.demonii.com%3A1337","udp%3A%2F%2Ftracker.coppersurfer.tk%3A6969","udp%3A%2F%2Fexodus.desync.com%3A6969"],"infoHash":"0695f4032f5e5e9731ab40505a8932e98fe00575","infoHashBuffer":{"type":"Buffer","data":[6,149,244,3,47,94,94,151,49,171,64,80,90,137,50,233,143,224,5,117]},"announce":[],"urlList":[]}}